<svg width="24" height="25" viewBox="0 0 24 25" fill="none" xmlns="http://www.w3.org/2000/svg">
<path d="M6 14.7067V5.26586C6 5.16797 6.05665 5.0794 6.14649 5.04051C6.66893 4.81436 8.47856 4.0689 9.77419 4.00467C12.181 3.88535 13.2382 6.09319 15.6452 5.97653C16.6511 5.92778 18.0222 5.46722 18.6546 5.23611C18.8209 5.17534 19 5.29801 19 5.47504V14.958C19 15.0596 18.9395 15.1505 18.8447 15.187C18.3487 15.378 16.7694 15.9535 15.6452 15.9973C13.2123 16.0921 12.2036 13.6534 9.77419 13.8189C8.61242 13.898 7.0724 14.5925 6.37345 14.9357C6.2035 15.0191 6 14.896 6 14.7067Z" stroke="white" stroke-width="2" stroke-linecap="round"/>
<path d="M6 15V21" stroke="white" stroke-width="2" stroke-linecap="round"/>
</svg>
