<svg width="127" height="44" viewBox="0 0 127 44" fill="none" xmlns="http://www.w3.org/2000/svg">
<path fill-rule="evenodd" clip-rule="evenodd" d="M11.0779 8.42285C11.1742 8.42285 11.2689 8.42457 11.3635 8.42629C11.4581 8.42801 11.5528 8.43145 11.6474 8.43661C11.7421 8.44177 11.8367 8.44694 11.9296 8.45382C12.0242 8.4607 12.1172 8.46931 12.2101 8.47791C12.303 8.48651 12.3959 8.49856 12.4888 8.50888C12.5818 8.52093 12.6729 8.53297 12.7659 8.54846C12.8571 8.56222 12.9483 8.57771 13.0395 8.5932C13.1307 8.60868 13.2219 8.62761 13.3113 8.64482C13.4008 8.66375 13.492 8.68267 13.5798 8.70332C13.6692 8.72397 13.7587 8.74634 13.8465 8.76871C13.9342 8.79108 14.0237 8.81517 14.1115 8.84098C14.1992 8.86507 14.287 8.8926 14.373 8.91841C14.459 8.94594 14.5468 8.97347 14.6311 9.00272C14.7171 9.03197 14.8015 9.06123 14.8875 9.0922C14.9718 9.12317 15.0561 9.15587 15.1404 9.18856C15.2247 9.22125 15.3073 9.25567 15.3899 9.29008C15.4725 9.32449 15.5551 9.36063 15.6377 9.39848C15.7186 9.43634 15.8012 9.47419 15.8821 9.51205C15.9629 9.55163 16.0438 9.5912 16.123 9.63078C16.2021 9.67207 16.2813 9.71337 16.3604 9.75639C16.4396 9.79941 16.517 9.84242 16.5944 9.88716C16.6719 9.9319 16.7493 9.97664 16.825 10.0231C16.9007 10.0696 16.9764 10.116 17.0521 10.1642C17.1278 10.2124 17.2018 10.2606 17.2758 10.3105C17.3498 10.3604 17.4221 10.4103 17.4943 10.4619C17.5666 10.5135 17.6389 10.5651 17.7094 10.6185C17.78 10.6718 17.8505 10.7251 17.9211 10.7802C17.9916 10.8353 18.0605 10.8903 18.1276 10.9471C18.1964 11.0039 18.2635 11.0607 18.3306 11.1192C18.3977 11.1777 18.4648 11.2362 18.5302 11.2964C18.5956 11.3566 18.661 11.4169 18.7246 11.4771C18.8537 11.5993 18.9776 11.7249 19.0998 11.8522C19.1617 11.9159 19.2219 11.9813 19.2804 12.0466C19.3407 12.112 19.3992 12.1791 19.4577 12.2462C19.5162 12.3133 19.573 12.3805 19.6297 12.4493C19.6865 12.5181 19.7416 12.5869 19.7966 12.6558C19.8517 12.7263 19.905 12.7951 19.9584 12.8674C20.0117 12.938 20.0634 13.0102 20.115 13.0825C20.1666 13.1548 20.2165 13.2288 20.2664 13.301C20.3163 13.375 20.3645 13.449 20.4127 13.5247C20.4608 13.6004 20.5073 13.6744 20.5538 13.7519C20.6002 13.8276 20.6449 13.905 20.6897 13.9824C20.7344 14.0599 20.7774 14.1373 20.8205 14.2164C20.8635 14.2956 20.9048 14.3747 20.9461 14.4539C20.9874 14.533 21.0269 14.6139 21.0648 14.6948C21.1044 14.7757 21.1422 14.8565 21.1784 14.9391C21.2162 15.0217 21.2506 15.1026 21.2868 15.1869C21.3212 15.2695 21.3556 15.3538 21.3883 15.4364C21.421 15.5207 21.4537 15.605 21.4846 15.6894C21.5156 15.7737 21.5466 15.8597 21.5741 15.9457C21.6034 16.0318 21.6309 16.1178 21.6584 16.2038C21.686 16.2899 21.7118 16.3776 21.7359 16.4654C21.7617 16.5532 21.784 16.6409 21.8081 16.7304C21.8305 16.8181 21.8529 16.9076 21.8735 16.9971C21.8942 17.0866 21.9131 17.176 21.932 17.2655C21.951 17.355 21.9682 17.4462 21.9837 17.5374C21.9991 17.6286 22.0146 17.7198 22.0284 17.811C22.0422 17.9022 22.0559 17.9951 22.0662 18.088C22.0783 18.1809 22.0886 18.2738 22.0972 18.3668C22.1058 18.4597 22.1144 18.5526 22.1213 18.6472C22.1282 18.7402 22.1351 18.8348 22.1385 18.9294C22.1437 19.0241 22.1471 19.1187 22.1488 19.2134C22.1506 19.308 22.1523 19.4043 22.1523 19.499C22.1523 19.5953 22.1506 19.69 22.1488 19.7846C22.1471 19.8793 22.1437 19.9739 22.1385 20.0685C22.1334 20.1632 22.1282 20.2578 22.1213 20.3507C22.1144 20.4437 22.1058 20.5383 22.0972 20.6312C22.0886 20.7241 22.0766 20.817 22.0662 20.91C22.0542 21.0029 22.0422 21.0941 22.0284 21.187C22.0146 21.2782 21.9991 21.3694 21.9837 21.4606C21.9682 21.5518 21.9492 21.6413 21.932 21.7325C21.9131 21.8219 21.8942 21.9131 21.8735 22.0009C21.8529 22.0904 21.8305 22.1798 21.8081 22.2676C21.7858 22.3553 21.7617 22.4448 21.7359 22.5326C21.7118 22.6203 21.6842 22.7081 21.6584 22.7941C21.6309 22.8802 21.6034 22.9679 21.5741 23.0522C21.5449 23.1383 21.5156 23.2226 21.4846 23.3086C21.4537 23.3929 21.421 23.4772 21.3883 23.5616C21.3556 23.6459 21.3212 23.7285 21.2868 23.8111C21.2162 23.9762 21.1422 24.1397 21.0648 24.3015C21.0252 24.3823 20.9856 24.4615 20.9461 24.5424C20.9048 24.6215 20.8635 24.7007 20.8205 24.7798C20.7774 24.859 20.7344 24.9364 20.6897 25.0138C20.6449 25.0913 20.6002 25.1687 20.5538 25.2444C20.5073 25.3201 20.4608 25.3958 20.4127 25.4715C20.3645 25.5472 20.3163 25.6212 20.2664 25.6952C20.2165 25.7692 20.1666 25.8415 20.115 25.9138C20.0634 25.986 20.0117 26.0583 19.9584 26.1288C19.905 26.1994 19.8517 26.2699 19.7966 26.3405C19.7416 26.411 19.6865 26.4799 19.6297 26.547C19.5162 26.6829 19.4009 26.8171 19.2822 26.9496C19.1032 27.1458 18.9174 27.3368 18.7246 27.5209C18.661 27.5828 18.5956 27.6431 18.5302 27.7016C18.4648 27.7618 18.3977 27.8203 18.3306 27.8788C18.2635 27.9373 18.1964 27.9941 18.1276 28.0509C18.0587 28.1076 17.9899 28.1627 17.9211 28.2178C17.8505 28.2728 17.7817 28.3262 17.7094 28.3795C17.6389 28.4329 17.5666 28.4845 17.4943 28.5361C17.4221 28.5877 17.3481 28.6376 17.2758 28.6875C17.2018 28.7374 17.1278 28.7856 17.0521 28.8338C16.9764 28.882 16.9024 28.9284 16.825 28.9749C16.7493 29.0213 16.6719 29.0661 16.5944 29.1108C16.517 29.1555 16.4396 29.1986 16.3604 29.2416C16.2813 29.2846 16.2021 29.3259 16.123 29.3672C16.0438 29.4085 15.9629 29.4481 15.8821 29.4859C15.8012 29.5255 15.7203 29.5634 15.6377 29.5995C15.5551 29.6373 15.4742 29.6718 15.3899 29.7079C15.3073 29.7423 15.223 29.7767 15.1404 29.8094C15.0561 29.8421 14.9718 29.8748 14.8875 29.9058C14.8032 29.9367 14.7171 29.9677 14.6311 29.9953C14.5451 30.0245 14.459 30.052 14.373 30.0796C14.287 30.1071 14.1992 30.1329 14.1115 30.157C14.0237 30.1811 13.9359 30.2052 13.8465 30.2293C13.7587 30.2516 13.6692 30.274 13.5798 30.2947C13.4903 30.3153 13.4008 30.3342 13.3113 30.3532C13.2219 30.3721 13.1307 30.3893 13.0395 30.4048C12.9483 30.4203 12.8571 30.4358 12.7659 30.4495C12.6747 30.4633 12.5818 30.477 12.4888 30.4874C12.3959 30.4994 12.303 30.5097 12.2101 30.5183C12.1172 30.5269 12.0242 30.5356 11.9296 30.5424C11.8367 30.5493 11.7421 30.5562 11.6474 30.5596C11.5528 30.5648 11.4581 30.5682 11.3635 30.57C11.2689 30.5717 11.1725 30.5734 11.0779 30.5734C10.9901 30.5734 10.9023 30.5717 10.8163 30.57C10.7871 30.57 10.7578 30.5682 10.7286 30.5665C10.6701 30.5648 10.6116 30.5631 10.5548 30.5596C10.5204 30.5579 10.4877 30.5562 10.4532 30.5545C10.3999 30.551 10.3483 30.5493 10.2949 30.5442C10.2588 30.5424 10.2227 30.539 10.1865 30.5356C10.1366 30.5321 10.0867 30.5269 10.0351 30.5235C9.99898 30.5201 9.96285 30.5166 9.92671 30.5132C9.87681 30.508 9.82691 30.5029 9.77701 30.496C9.74088 30.4925 9.70646 30.4874 9.67033 30.4839C9.62043 30.477 9.57053 30.4702 9.52063 30.4633C9.48621 30.4581 9.45008 30.453 9.41567 30.4478C9.36404 30.4409 9.31414 30.4323 9.26252 30.4237C9.22983 30.4185 9.19714 30.4134 9.16444 30.4082C9.10594 30.3979 9.04916 30.3876 8.99065 30.3755C8.96484 30.3704 8.94075 30.3669 8.91494 30.3618C8.83235 30.3446 8.74975 30.3291 8.66716 30.3101C8.65684 30.3084 8.64823 30.305 8.63791 30.3033C8.56564 30.2878 8.49337 30.2706 8.4211 30.2534C8.39357 30.2465 8.36604 30.2396 8.33851 30.2327C8.28517 30.2189 8.23182 30.2052 8.17848 30.1914C8.14579 30.1828 8.11482 30.1742 8.08212 30.1639C8.03394 30.1501 7.98576 30.1363 7.93758 30.1226C7.90317 30.1123 7.87048 30.1019 7.83606 30.0916C7.7896 30.0778 7.74315 30.0624 7.69669 30.0486C7.66227 30.0383 7.62958 30.0262 7.59689 30.0159C7.55043 30.0004 7.50397 29.9849 7.45923 29.9694C7.42654 29.9574 7.39384 29.9471 7.35943 29.935C7.31297 29.9178 7.26823 29.9023 7.22177 29.8851C7.18908 29.8731 7.15811 29.861 7.12541 29.849C7.07724 29.8301 7.02906 29.8111 6.9826 29.7922C6.95335 29.7802 6.92409 29.7698 6.89484 29.7578C6.83978 29.7354 6.78472 29.7113 6.72965 29.689C6.70901 29.6804 6.68664 29.6718 6.66599 29.6614C6.59028 29.6287 6.51457 29.5943 6.44058 29.5599C6.42681 29.553 6.41132 29.5461 6.39756 29.5393C6.33733 29.5117 6.27711 29.4825 6.21689 29.4532C6.19108 29.4395 6.16354 29.4274 6.13773 29.4137C6.09128 29.3896 6.04482 29.3672 5.99836 29.3431C5.96911 29.3276 5.93985 29.3121 5.90888 29.2966C5.86586 29.2743 5.82285 29.2502 5.77983 29.2278C5.74886 29.2106 5.7196 29.1951 5.69035 29.1779C5.64906 29.1556 5.60776 29.1315 5.56646 29.1074C5.53549 29.0902 5.50452 29.0712 5.47526 29.054C5.43397 29.0299 5.39439 29.0058 5.35482 28.9818C5.32384 28.9628 5.29459 28.9456 5.26362 28.9267C5.22232 28.9009 5.18275 28.8768 5.14317 28.851C5.11392 28.8321 5.08639 28.8149 5.05713 28.7959C5.01584 28.7684 4.97282 28.7409 4.93152 28.7133C4.90571 28.6961 4.87818 28.6789 4.85237 28.66C4.80419 28.6273 4.75601 28.5929 4.70611 28.5585C4.68891 28.5464 4.66998 28.5327 4.65105 28.5206C4.58566 28.4742 4.52028 28.426 4.45489 28.3778C4.43768 28.364 4.42048 28.3503 4.40155 28.3382C4.35509 28.3021 4.30691 28.2659 4.26045 28.2298C4.23636 28.2109 4.21055 28.1902 4.18646 28.1713C4.14688 28.1403 4.10731 28.1094 4.06945 28.0767C4.04364 28.056 4.01783 28.0337 3.99202 28.013C3.95417 27.982 3.91803 27.9511 3.8819 27.9201C3.85609 27.8977 3.83028 27.8753 3.80447 27.853C3.76833 27.822 3.73392 27.791 3.6995 27.7601C3.67369 27.736 3.64788 27.7136 3.62207 27.6895C3.58766 27.6585 3.55324 27.6258 3.51883 27.5949C3.49302 27.5708 3.46721 27.5467 3.44312 27.5226C3.4087 27.4899 3.37601 27.4572 3.3416 27.4245C3.31751 27.4004 3.2917 27.3763 3.26761 27.3523C3.23147 27.3161 3.19706 27.2817 3.16092 27.2456C3.14028 27.2232 3.11791 27.2026 3.09554 27.1802C3.05424 27.1372 3.01466 27.0942 2.97337 27.0511C2.95788 27.0339 2.9424 27.0184 2.92691 27.0012C2.87185 26.9427 2.81851 26.8825 2.76516 26.8223C2.74968 26.8034 2.73419 26.7861 2.71698 26.7672C2.67913 26.7242 2.64299 26.6812 2.60514 26.6382C2.58449 26.6141 2.56384 26.5883 2.54319 26.5625C2.51222 26.5246 2.47953 26.4867 2.45028 26.4489C2.42963 26.4231 2.40898 26.3955 2.38661 26.3697C2.35736 26.3319 2.32639 26.294 2.29885 26.2562C2.27821 26.2286 2.25584 26.2011 2.23519 26.1736C2.20766 26.1357 2.17841 26.0996 2.15087 26.0617C2.13023 26.0325 2.10958 26.005 2.08893 25.9757C2.0614 25.9378 2.03387 25.9 2.00806 25.8604C1.98741 25.8312 1.96848 25.8036 1.94783 25.7744C1.9203 25.7348 1.89277 25.6935 1.86524 25.6539C1.84631 25.6264 1.8291 25.5989 1.81018 25.5713C1.78092 25.5283 1.75339 25.4836 1.72414 25.4388C1.70865 25.4147 1.69317 25.3889 1.67768 25.3649C1.64155 25.3063 1.60541 25.2496 1.571 25.1911C1.56412 25.179 1.55723 25.1687 1.55035 25.1566C1.50905 25.0861 1.46776 25.0155 1.42646 24.9433C1.41614 24.9244 1.40581 24.9037 1.39377 24.8848C1.36451 24.8332 1.33526 24.7798 1.30773 24.7265C1.29397 24.7007 1.2802 24.6731 1.26643 24.6473C1.24234 24.6009 1.21825 24.5544 1.19417 24.5079C1.17868 24.4787 1.16491 24.4494 1.14943 24.4202C1.12706 24.3754 1.10469 24.3307 1.08404 24.286C1.07027 24.2567 1.05479 24.2257 1.04102 24.1948C1.02037 24.15 0.999726 24.1053 0.979078 24.0588C0.965312 24.0296 0.951547 23.9986 0.937781 23.9694C0.917133 23.9229 0.896484 23.8764 0.877557 23.8283C0.865512 23.799 0.851746 23.7698 0.839701 23.7405C0.819053 23.6923 0.800125 23.6424 0.779477 23.5942C0.767432 23.5667 0.757108 23.5375 0.746783 23.5099C0.726135 23.4549 0.703766 23.3998 0.683118 23.343C0.674514 23.3207 0.665911 23.3 0.659028 23.2776C0.602245 23.1193 0.547182 22.961 0.497282 22.7993C0.49212 22.7821 0.486958 22.7649 0.481796 22.7477C0.462868 22.6857 0.44394 22.6221 0.425013 22.5601C0.41813 22.5343 0.409526 22.5068 0.402644 22.481C0.387157 22.4259 0.371671 22.3708 0.357905 22.3158C0.351023 22.2882 0.34414 22.259 0.335536 22.2315C0.321771 22.1781 0.308005 22.1231 0.29596 22.0697C0.289077 22.0405 0.282195 22.0112 0.275312 21.982C0.268429 21.9544 0.261546 21.9269 0.256384 21.9011H0.258105C0.134215 21.3401 0.051621 20.7654 0.0154863 20.1769H5.25846C5.42881 21.6327 6.13085 22.9249 7.16671 23.8524L7.16843 23.8541C7.26479 23.9401 7.36287 24.0227 7.46611 24.1036L7.47128 24.1087C7.50225 24.1328 7.53494 24.1569 7.56591 24.181L7.57452 24.1879C7.67604 24.2636 7.77928 24.3359 7.88596 24.4047L7.89973 24.4133C7.9307 24.434 7.96167 24.4529 7.99265 24.4718L8.00813 24.4804C8.0804 24.5251 8.15267 24.5682 8.22666 24.6077L8.23527 24.6129C8.26796 24.6318 8.30065 24.649 8.33507 24.6662L8.35571 24.6766C8.38669 24.6921 8.41766 24.7093 8.44863 24.7248L8.46756 24.7351C8.54155 24.7729 8.61726 24.8073 8.69469 24.8418L8.71362 24.8504C8.74459 24.8641 8.77557 24.8779 8.80654 24.8899L8.83579 24.902C8.86676 24.914 8.89773 24.9278 8.92871 24.9398L8.94936 24.9484C9.02679 24.9777 9.10422 25.0069 9.18337 25.0345L9.21262 25.0448C9.24187 25.0551 9.27113 25.0637 9.3021 25.0741L9.33651 25.0844C9.36749 25.0947 9.40018 25.1033 9.43115 25.1136L9.45524 25.1205C9.49482 25.1326 9.53611 25.1429 9.57741 25.1532L9.59118 25.1566C9.62559 25.1652 9.66 25.1739 9.69614 25.1825C9.70818 25.1859 9.72195 25.1876 9.73572 25.1911C9.76325 25.1979 9.7925 25.2031 9.82003 25.21C9.8338 25.2134 9.84584 25.2151 9.85961 25.2186C9.8923 25.2255 9.92499 25.2324 9.95769 25.2392C9.96457 25.241 9.97317 25.2427 9.98178 25.2444C10.0231 25.2513 10.0644 25.2599 10.1057 25.2668C10.116 25.2685 10.1246 25.2702 10.1349 25.2719C10.1659 25.2771 10.1969 25.2823 10.2278 25.2857C10.2416 25.2874 10.2554 25.2891 10.2709 25.2909C10.3001 25.2943 10.3294 25.2995 10.3586 25.3029C10.3707 25.3046 10.3844 25.3063 10.3965 25.3081C10.4343 25.3132 10.4705 25.3167 10.5083 25.3201L10.5221 25.3218C10.5634 25.3253 10.6064 25.3287 10.6477 25.3322C10.6597 25.3322 10.6718 25.3339 10.6821 25.3339C10.7131 25.3356 10.744 25.3373 10.775 25.339C10.7888 25.339 10.8043 25.3408 10.818 25.3408C10.8473 25.3425 10.8765 25.3425 10.9058 25.3442C10.9196 25.3442 10.9333 25.3459 10.9471 25.3459C10.9901 25.3476 11.0314 25.3476 11.0744 25.3476C11.1243 25.3476 11.1759 25.3476 11.2258 25.3459C11.2757 25.3442 11.3256 25.3425 11.3755 25.3408C11.4254 25.339 11.4753 25.3356 11.5252 25.3322C11.5751 25.3287 11.625 25.3236 11.6732 25.3184C11.7231 25.3132 11.7713 25.3081 11.8195 25.3012C11.8677 25.2943 11.9176 25.2874 11.9657 25.2805C12.0139 25.2737 12.0621 25.265 12.1103 25.2564C12.1585 25.2478 12.2066 25.2392 12.2531 25.2289C12.3013 25.2186 12.3477 25.2083 12.3959 25.1979C12.4424 25.1876 12.4906 25.1756 12.537 25.1635C12.5835 25.1515 12.6299 25.1394 12.6764 25.1257C12.7228 25.1119 12.7693 25.0981 12.814 25.0844C12.8605 25.0706 12.9052 25.0551 12.95 25.0396C12.9947 25.0242 13.0412 25.0087 13.0859 24.9915C13.1307 24.9743 13.1754 24.9588 13.2201 24.9398C13.2649 24.9226 13.3079 24.9037 13.3526 24.8865C13.3956 24.8676 13.4404 24.8486 13.4834 24.8297C13.5264 24.8108 13.5694 24.7901 13.6125 24.7695C13.6555 24.7488 13.6968 24.7282 13.7398 24.7058C13.7811 24.6835 13.8241 24.6628 13.8654 24.6404C13.9067 24.6181 13.948 24.5957 13.9893 24.5716C14.0306 24.5475 14.0702 24.5234 14.1115 24.4993C14.151 24.4752 14.1923 24.4494 14.2319 24.4253C14.2715 24.3995 14.3111 24.3737 14.3489 24.3479C14.3885 24.3221 14.4263 24.2946 14.4642 24.267C14.5021 24.2395 14.5399 24.212 14.5778 24.1845C14.6156 24.1569 14.6518 24.1277 14.6896 24.0984C14.7636 24.0399 14.8359 23.9814 14.9064 23.9195C14.977 23.8575 15.0458 23.7956 15.1146 23.7302C15.149 23.6975 15.1817 23.6648 15.2144 23.6321C15.2471 23.5994 15.2798 23.565 15.3125 23.5323C15.3779 23.4652 15.4398 23.3946 15.5018 23.3241C15.5328 23.288 15.562 23.2536 15.593 23.2174C15.6222 23.1813 15.6515 23.1451 15.6807 23.1073C15.71 23.0712 15.7375 23.0333 15.7668 22.9954C15.7943 22.9576 15.8218 22.9197 15.8494 22.8819C15.8769 22.844 15.9027 22.8044 15.9302 22.7666C15.956 22.727 15.9819 22.6892 16.0077 22.6479C16.0335 22.6083 16.0576 22.5687 16.0834 22.5274C16.1075 22.4878 16.1316 22.4465 16.1556 22.4052C16.1797 22.364 16.2021 22.3227 16.2245 22.2814C16.2468 22.2401 16.2692 22.1988 16.2899 22.1557C16.3122 22.1144 16.3329 22.0714 16.3535 22.0284C16.3742 21.9854 16.3948 21.9424 16.4137 21.8994C16.4327 21.8563 16.4516 21.8133 16.4705 21.7686C16.4895 21.7256 16.5067 21.6808 16.5239 21.6361C16.5411 21.5914 16.5583 21.5466 16.5755 21.5019C16.5927 21.4571 16.6082 21.4124 16.6237 21.3659C16.6392 21.3212 16.6546 21.2747 16.6684 21.23C16.6822 21.1836 16.6959 21.1388 16.7097 21.0924C16.7235 21.0459 16.7355 20.9994 16.7476 20.953C16.7596 20.9065 16.7717 20.8601 16.782 20.8119C16.7923 20.7654 16.8026 20.7172 16.813 20.6691C16.8233 20.6209 16.8319 20.5744 16.8405 20.5262C16.8491 20.4781 16.8577 20.4299 16.8646 20.3817C16.8715 20.3335 16.8783 20.2853 16.8852 20.2354C16.8921 20.1873 16.8973 20.1374 16.9024 20.0875C16.9076 20.0376 16.911 19.9894 16.9162 19.9395C16.9196 19.8896 16.9231 19.8397 16.9248 19.7898C16.9265 19.7399 16.93 19.69 16.93 19.6401C16.9317 19.5902 16.9317 19.5403 16.9317 19.4887C16.9317 19.4388 16.9317 19.3871 16.93 19.3372C16.9282 19.2873 16.9265 19.2374 16.9248 19.1875C16.9231 19.1376 16.9196 19.0877 16.9162 19.0378C16.9128 18.9879 16.9076 18.9398 16.9024 18.8899C16.8973 18.84 16.8921 18.7918 16.8852 18.7436C16.8783 18.6954 16.8715 18.6455 16.8646 18.5973C16.8577 18.5492 16.8491 18.501 16.8405 18.4528C16.8319 18.4046 16.8233 18.3564 16.813 18.31C16.8026 18.2618 16.7923 18.2153 16.782 18.1672C16.7717 18.1207 16.7596 18.0725 16.7476 18.0261C16.7355 17.9796 16.7235 17.9332 16.7097 17.8867C16.6959 17.8402 16.6822 17.7938 16.6684 17.749C16.6546 17.7026 16.6392 17.6578 16.6237 17.6131C16.6082 17.5684 16.5927 17.5219 16.5755 17.4772C16.5583 17.4324 16.5428 17.3877 16.5239 17.343C16.5067 17.2982 16.4877 17.2552 16.4705 17.2105C16.4516 17.1674 16.4327 17.1227 16.4137 17.0797C16.3948 17.0367 16.3742 16.9936 16.3535 16.9506C16.3329 16.9076 16.3122 16.8663 16.2899 16.8233C16.2692 16.782 16.2468 16.739 16.2245 16.6977C16.2021 16.6564 16.1797 16.6151 16.1556 16.5738C16.1316 16.5325 16.1075 16.4929 16.0834 16.4516C16.0593 16.4121 16.0335 16.3708 16.0077 16.3312C15.9819 16.2916 15.956 16.252 15.9302 16.2142C15.9044 16.1746 15.8769 16.1367 15.8494 16.0989C15.8218 16.061 15.7943 16.0232 15.7668 15.9853C15.7392 15.9475 15.71 15.9113 15.6807 15.8735C15.6515 15.8373 15.6222 15.7995 15.593 15.7633C15.5637 15.7272 15.5328 15.6911 15.5018 15.6567C15.4398 15.5861 15.3779 15.5173 15.3125 15.4485C15.2798 15.414 15.2471 15.3814 15.2144 15.3487C15.1817 15.316 15.1473 15.2833 15.1146 15.2506C15.0475 15.1852 14.977 15.1232 14.9064 15.0613C14.8703 15.0303 14.8359 15.0011 14.7997 14.9701C14.7636 14.9409 14.7275 14.9116 14.6896 14.8824C14.6535 14.8531 14.6156 14.8256 14.5778 14.7963C14.5399 14.7688 14.5021 14.7413 14.4642 14.7137C14.4263 14.6862 14.3868 14.6604 14.3489 14.6329C14.3093 14.607 14.2715 14.5812 14.2319 14.5554C14.1923 14.5296 14.1528 14.5055 14.1115 14.4797C14.0719 14.4556 14.0306 14.4315 13.9893 14.4074C13.948 14.3833 13.9067 14.361 13.8654 14.3386C13.8241 14.3162 13.7828 14.2939 13.7398 14.2732C13.6985 14.2509 13.6555 14.2302 13.6125 14.2096C13.5694 14.1889 13.5264 14.1683 13.4834 14.1493C13.4404 14.1304 13.3974 14.1115 13.3526 14.0926C13.3096 14.0736 13.2649 14.0564 13.2201 14.0392C13.1754 14.022 13.1307 14.0048 13.0859 13.9876C13.0412 13.9704 12.9964 13.9549 12.95 13.9394C12.9052 13.9239 12.8588 13.9084 12.814 13.8947C12.7676 13.8809 12.7228 13.8671 12.6764 13.8534C12.6299 13.8396 12.5835 13.8276 12.537 13.8155C12.4906 13.8035 12.4441 13.7914 12.3959 13.7811C12.3495 13.7708 12.3013 13.7605 12.2531 13.7501C12.2049 13.7398 12.1585 13.7312 12.1103 13.7226C12.0621 13.714 12.0139 13.7054 11.9657 13.6985C11.9176 13.6916 11.8694 13.6847 11.8195 13.6779C11.7713 13.671 11.7214 13.6658 11.6732 13.6607C11.6233 13.6555 11.5751 13.6521 11.5252 13.6469C11.4753 13.6434 11.4254 13.64 11.3755 13.6383C11.3256 13.6366 11.2757 13.6331 11.2258 13.6331C11.1759 13.6314 11.126 13.6314 11.0744 13.6314C11.0486 13.6314 11.0228 13.6314 10.997 13.6314H10.9729C10.9557 13.6314 10.9368 13.6314 10.9196 13.6331H10.8903C10.8748 13.6331 10.8576 13.6348 10.8421 13.6348L10.8094 13.6366C10.7939 13.6366 10.7785 13.6383 10.7647 13.6383L10.732 13.64C10.7165 13.64 10.7027 13.6417 10.6873 13.6434L10.6563 13.6452C10.6391 13.6469 10.6236 13.6469 10.6064 13.6486L10.5806 13.6503C10.5617 13.6521 10.5427 13.6538 10.5238 13.6555L10.5049 13.6572C10.4532 13.6624 10.4016 13.6675 10.35 13.6744L10.3414 13.6761C10.319 13.6796 10.2967 13.6813 10.276 13.6847L10.2502 13.6882C10.233 13.6899 10.2175 13.6933 10.2003 13.6951L10.1728 13.6985C10.1573 13.7002 10.1418 13.7037 10.1246 13.7054L10.0971 13.7106C10.0799 13.714 10.0644 13.7157 10.0472 13.7192L10.0231 13.7243C10.0059 13.7278 9.98866 13.7312 9.97145 13.7329L9.94736 13.7381C9.92671 13.7415 9.90779 13.7467 9.88714 13.7501L9.87337 13.7536C9.79766 13.7691 9.72367 13.7863 9.64968 13.8052L9.63591 13.8086C9.61699 13.8138 9.59634 13.819 9.57741 13.8241L9.5602 13.8293C9.54128 13.8344 9.52235 13.8396 9.50342 13.8448L9.48793 13.8499C9.46729 13.8551 9.44836 13.862 9.42771 13.8671L9.41567 13.8706C9.39502 13.8775 9.37437 13.8826 9.35372 13.8895L9.3434 13.8929C9.22123 13.9308 9.10078 13.9721 8.98205 14.0168L8.97689 14.0186C8.95452 14.0272 8.93387 14.0358 8.9115 14.0444L8.90462 14.0461C8.88225 14.0547 8.8616 14.0633 8.83923 14.0736L8.83407 14.0753C8.8117 14.0839 8.78933 14.0943 8.76868 14.1029L8.76352 14.1046C8.41078 14.256 8.07524 14.4419 7.76207 14.6569H7.76035C7.59345 14.7722 7.4317 14.8944 7.27856 15.0252C7.20113 15.0923 7.12541 15.1594 7.0497 15.2299H10.4997V18.6094H5.28083H3.37945H0.0258105H0V15.2299V8.10968H3.37945V11.5115L3.39322 11.4995C3.4087 11.484 3.42419 11.4702 3.43796 11.4564C3.46893 11.4272 3.50162 11.3962 3.5326 11.367C3.54636 11.3532 3.56185 11.3412 3.57561 11.3274C3.61347 11.293 3.6496 11.2603 3.68746 11.2259C3.70467 11.2104 3.72015 11.1966 3.73736 11.1811C3.77693 11.1467 3.81823 11.1106 3.85781 11.0762C3.87157 11.0641 3.88534 11.0521 3.8991 11.04C3.93008 11.0125 3.96277 10.9867 3.99546 10.9592C4.01267 10.9454 4.02988 10.9316 4.04708 10.9179C4.08666 10.8852 4.12796 10.8525 4.16925 10.8198C4.18646 10.806 4.20539 10.7905 4.22432 10.7768C4.25357 10.7527 4.28454 10.7303 4.31551 10.7062C4.33616 10.6907 4.35681 10.6752 4.37574 10.6598C4.41359 10.6305 4.45317 10.6013 4.49102 10.5737C4.50995 10.56 4.52888 10.5462 4.54953 10.5307C4.58566 10.5032 4.62352 10.4774 4.65965 10.4516C4.68202 10.4361 4.70267 10.4206 4.72504 10.4051C4.75773 10.3827 4.79043 10.3604 4.82312 10.338C4.84205 10.3242 4.8627 10.3105 4.88162 10.2984C4.92464 10.2692 4.96766 10.2399 5.01068 10.2124C5.0296 10.2003 5.04681 10.1883 5.06574 10.1762C5.10015 10.1539 5.13285 10.1332 5.16726 10.1109C5.18447 10.1005 5.20167 10.0885 5.21888 10.0782C5.26362 10.0506 5.30836 10.0231 5.3531 9.99557C5.37374 9.98352 5.39267 9.97148 5.41332 9.95943C5.45117 9.93706 5.49075 9.91297 5.53033 9.8906C5.5527 9.87856 5.57334 9.86479 5.59571 9.85275C5.63357 9.8321 5.6697 9.81145 5.70756 9.78908C5.72649 9.77876 5.74714 9.76671 5.76778 9.75639C5.81424 9.73058 5.86242 9.70477 5.90888 9.68068C5.92609 9.67207 5.9433 9.66175 5.96222 9.65315C6.00008 9.63422 6.03621 9.61529 6.07407 9.59636C6.093 9.58776 6.1102 9.57744 6.12913 9.56883C6.17731 9.54474 6.22549 9.52065 6.27539 9.49656L6.33217 9.46903C6.37519 9.44838 6.41821 9.42946 6.46123 9.40881L6.51629 9.383C6.56103 9.36235 6.60576 9.34342 6.6505 9.32277C6.66943 9.31417 6.68836 9.30729 6.70556 9.29868C6.75719 9.27631 6.80709 9.25567 6.85871 9.2333C6.87591 9.22641 6.8914 9.21953 6.90861 9.21265C6.9499 9.19544 6.99292 9.17823 7.03422 9.16275C7.05142 9.15587 7.06863 9.14898 7.08584 9.1421C7.13746 9.12145 7.1908 9.10252 7.24414 9.0836C7.26135 9.07671 7.27856 9.06983 7.29748 9.06467C7.34394 9.04746 7.39212 9.03025 7.43858 9.01477C7.45063 9.01133 7.46095 9.00616 7.473 9.00272C7.52806 8.9838 7.58312 8.96487 7.63818 8.94766L7.69152 8.93045C7.74659 8.91325 7.80165 8.89604 7.85843 8.87883C7.8722 8.87539 7.88424 8.87195 7.89801 8.86679C7.94619 8.85302 7.99437 8.83754 8.04255 8.82377C8.05803 8.81861 8.07352 8.81517 8.08901 8.81C8.14579 8.79452 8.20257 8.77903 8.25936 8.76355L8.30581 8.7515C8.35744 8.73774 8.40906 8.72569 8.4624 8.71192L8.49165 8.70504C8.55015 8.69128 8.61038 8.67751 8.66888 8.66374L8.71706 8.65342C8.77729 8.63966 8.83579 8.62761 8.89601 8.61557L8.92355 8.6104C8.97689 8.60008 9.03195 8.58976 9.08701 8.57943C9.1025 8.57599 9.11626 8.57427 9.13175 8.57083C9.19197 8.5605 9.2522 8.55018 9.31242 8.53985L9.352 8.53297C9.40706 8.52437 9.46212 8.51577 9.51891 8.50888L9.54988 8.50372C9.61182 8.49512 9.67377 8.48651 9.73572 8.47963L9.78045 8.47447C9.84412 8.46759 9.90606 8.4607 9.96973 8.45382L9.9835 8.4521C10.0437 8.44694 10.1057 8.44005 10.1659 8.43661L10.2072 8.43317C10.2709 8.42801 10.3328 8.42457 10.3965 8.41941L10.4326 8.41768C10.4894 8.41424 10.5479 8.4108 10.6047 8.40908L10.6391 8.40736C10.7027 8.40564 10.7664 8.4022 10.8318 8.4022H10.8748C10.9402 8.40048 11.0073 8.40048 11.0727 8.40048L11.0779 8.42285Z" fill="white"/>
<path d="M30.8934 30.3514V19.7949C30.8934 16.5393 32.3457 15.0441 35.6873 15.0441H38.1944V8.40216H36.6113C33.7085 8.40216 31.685 9.50169 30.5854 11.305V8.40216H24.3393V30.3514H30.8934Z" fill="white"/>
<path d="M50.2909 30.7919C52.9735 30.7919 55.2172 29.7801 56.6248 28.0646V30.3514H62.8279V8.40217H56.6248V10.689C55.2172 8.9287 52.9735 7.96167 50.2909 7.96167C44.1772 7.96167 39.4264 12.9328 39.4264 19.3544C39.4264 25.8208 44.1772 30.7919 50.2909 30.7919ZM51.1702 24.5888C48.1348 24.5888 45.9788 22.4327 45.9788 19.3544C45.9788 16.3191 48.1779 14.1201 51.1702 14.1201C54.1177 14.1201 56.3168 16.3191 56.3168 19.3544C56.3168 22.4327 54.1177 24.5888 51.1702 24.5888Z" fill="white"/>
<path d="M75.0999 30.3514V14.2956H80.5098V8.40045H75.0999V7.82918C75.0999 6.33389 75.8484 5.45462 77.6517 5.45462H80.2913V0H77.3884C71.8013 0 68.5475 3.38634 68.5475 7.69841V8.40217H65.3367V14.2973H68.5475V30.3531H75.1016L75.0999 30.3514Z" fill="white"/>
<path d="M93.7953 30.7919C99.9537 30.7919 104.397 26.9203 104.397 20.2784V8.40216H97.8424V20.1907C97.8424 23.0505 96.2593 24.5888 93.7953 24.5888C91.3313 24.5888 89.7052 23.0487 89.7052 20.1907V8.40216H83.1511V20.2784C83.1511 26.9203 87.6386 30.7919 93.7953 30.7919Z" fill="white"/>
<path d="M126.654 30.3514V24.4563H115.92L126.301 13.2838V8.40216H107.387V14.2956H117.723L107.167 25.5128V30.3514H126.654Z" fill="white"/>
<path fill-rule="evenodd" clip-rule="evenodd" d="M5.01752 32.1495H16.8886C19.7622 32.1495 22.1109 34.5 22.1109 37.3719H10.2398C7.36799 37.3719 5.01752 35.0214 5.01752 32.1495Z" fill="white"/>
<path d="M80.0624 41.5755C81.5766 41.5755 82.7674 41.0421 83.3283 40.2437H83.4126V41.4069H84.6033V31.4543H83.3696V35.3655H83.2853C82.6538 34.5378 81.5061 34.0905 80.0899 34.0905C77.7343 34.0905 76.0945 35.5204 76.0945 37.833C76.0945 40.1456 77.7481 41.5755 80.0607 41.5755H80.0624ZM80.3291 40.4829C78.3951 40.4829 77.3988 39.6844 77.3988 38.0997V37.5525C77.3988 35.997 78.4088 35.1831 80.3291 35.1831C82.3613 35.1831 83.4264 36.0796 83.4264 37.833C83.4264 39.5846 82.3613 40.4829 80.3291 40.4829ZM90.6447 41.5755C92.7749 41.5755 94.2616 40.5809 94.6952 39.1373H93.3496C92.9298 40.063 92.1159 40.5104 90.6172 40.5104C88.7812 40.5104 87.6593 39.7257 87.6042 38.184H94.8088C94.8226 38.1135 94.8226 38.0446 94.8226 37.833C94.8226 35.4498 93.1397 34.0905 90.6034 34.0905C88.0809 34.0905 86.3292 35.4223 86.3292 37.833C86.3292 40.2437 88.0671 41.5755 90.6464 41.5755H90.6447ZM93.5045 37.1464H87.6318C87.8142 35.8284 88.9068 35.1556 90.6034 35.1556C92.3138 35.1556 93.3359 35.8146 93.5045 37.1464ZM99.8539 41.5755C102.363 41.5755 103.54 40.679 103.54 39.3558C103.54 38.1616 102.684 37.4751 100.807 37.3357L99.0417 37.2101C97.8785 37.1275 97.3744 36.8487 97.3744 36.3016V36.2052C97.3744 35.5462 98.1865 35.1418 99.5614 35.1418C101.103 35.1418 101.762 35.5462 102.098 36.3566H103.443C103.01 34.8889 101.831 34.118 99.5614 34.118C97.4312 34.118 96.1269 35.0145 96.1269 36.2998C96.1269 37.4888 96.982 38.1479 98.8593 38.2872L100.625 38.4129C101.802 38.4972 102.292 38.8052 102.292 39.3403V39.4384C102.292 40.0871 101.633 40.55 99.8814 40.55C98.1848 40.55 97.4002 40.0458 97.1765 39.213H95.8309C96.1527 40.7306 97.4002 41.5721 99.8539 41.5721V41.5755ZM105.166 41.4069H106.399V34.2591H105.166V41.4069ZM105.138 32.9273H106.427V31.4561H105.138V32.9273ZM112.427 44C115.077 44 116.632 42.8368 116.632 40.8735V34.2574H115.442V35.4911H115.357C114.783 34.6084 113.578 34.0887 112.119 34.0887C109.736 34.0887 108.124 35.5324 108.124 37.7469C108.124 39.9615 109.736 41.4051 112.104 41.4051C113.533 41.4051 114.724 40.9147 115.313 40.1163H115.397V40.8167C115.397 42.0917 114.752 42.9331 112.439 42.9331C110.827 42.9331 110.042 42.5683 109.748 41.6288H108.402C108.753 43.1293 110.085 43.9982 112.425 43.9982L112.427 44ZM112.343 40.328C110.395 40.328 109.428 39.4866 109.428 38.0154V37.482C109.428 36.0108 110.395 35.1693 112.343 35.1693C114.347 35.1693 115.426 36.0951 115.426 37.8467C115.426 39.4453 114.361 40.328 112.343 40.328ZM118.902 41.4069H120.136V37.482C120.136 35.9677 121.228 35.1831 122.982 35.1831C124.692 35.1831 125.42 35.9127 125.42 37.2428V41.4051H126.654V37.0174C126.654 35.1951 125.308 34.087 123.219 34.087C121.817 34.087 120.724 34.5361 120.177 35.3621H120.093V34.2539H118.902V41.4017V41.4069Z" fill="white"/>
</svg>
