<svg width="35" height="35" viewBox="0 0 35 35" fill="none" xmlns="http://www.w3.org/2000/svg">
<path d="M32.7861 17.2314C32.9387 8.48818 25.9746 1.27672 17.2315 1.12411C8.48829 0.971495 1.27683 7.93552 1.12421 16.6787C0.971601 25.4219 7.93563 32.6333 16.6788 32.786C25.422 32.9386 32.6334 25.9745 32.7861 17.2314Z" fill="url(#paint0_linear_15_1085)"/>
<path d="M32.7861 17.2314C32.9387 8.48818 25.9746 1.27672 17.2315 1.12411C8.48829 0.971495 1.27683 7.93552 1.12421 16.6787C0.971601 25.4219 7.93563 32.6333 16.6788 32.786C25.422 32.9386 32.6334 25.9745 32.7861 17.2314Z" stroke="url(#paint1_radial_15_1085)"/>
<mask id="mask0_15_1085" style="mask-type:luminance" maskUnits="userSpaceOnUse" x="3" y="3" width="28" height="28">
<path d="M30.2881 3.62146H3.62143V30.2881H30.2881V3.62146Z" fill="white"/>
</mask>
<g mask="url(#mask0_15_1085)">
<path d="M15.3261 11.6739L15.3261 11.6739C16.5227 12.8705 18.3619 13.4375 20.9376 13.4375C20.9719 13.4375 21 13.4654 21 13.5C21 13.5346 20.972 13.5625 20.9376 13.5625C18.3619 13.5625 16.5227 14.1295 15.3261 15.3261C14.1296 16.5227 13.5625 18.3619 13.5625 20.9374C13.5625 20.972 13.5345 21 13.5 21C13.4655 21 13.4375 20.972 13.4375 20.9374C13.4375 18.3619 12.8705 16.5227 11.6739 15.3261C10.4774 14.1295 8.63816 13.5625 6.06249 13.5625C6.02797 13.5625 6 13.5345 6 13.5C6 13.4655 6.02799 13.4375 6.06249 13.4375C8.63816 13.4375 10.4773 12.8705 11.6739 11.6739L11.6739 11.6739C12.8705 10.4773 13.4375 8.63818 13.4375 6.06251C13.4375 6.02799 13.4655 6 13.5 6C13.5345 6 13.5625 6.02797 13.5625 6.06251C13.5625 8.63819 14.1296 10.4773 15.3261 11.6739Z" stroke="white" stroke-width="2"/>
<path d="M23.0001 28C22.9499 28 22.9091 27.9593 22.9091 27.909C22.9091 26.2143 22.5357 25.0165 21.7596 24.2404C20.9835 23.4643 19.7857 23.0909 18.091 23.0909C18.0407 23.0909 18 23.0501 18 22.9999C18 22.95 18.0406 22.9091 18.091 22.9091C19.7857 22.9091 20.9835 22.5357 21.7596 21.7596C22.5357 20.9835 22.9091 19.7857 22.9091 18.0908C22.9091 18.0408 22.9498 18 23.0001 18C23.0501 18 23.0909 18.0407 23.0909 18.0908C23.0909 19.7857 23.4643 20.9835 24.2404 21.7596C25.0165 22.5357 26.2143 22.9091 27.9092 22.9091C27.9593 22.9091 28 22.9499 28 22.9999C28 23.0502 27.9592 23.0909 27.9092 23.0909C26.2143 23.0909 25.0165 23.4643 24.2404 24.2404C23.4643 25.0165 23.0909 26.2143 23.0909 27.909C23.0909 27.9594 23.05 28 23.0001 28Z" stroke="white" stroke-width="2"/>
</g>
<defs>
<linearGradient id="paint0_linear_15_1085" x1="17.2609" y1="0.276743" x2="16.6791" y2="33.605" gradientUnits="userSpaceOnUse">
<stop stop-color="#95FFD2"/>
<stop offset="1" stop-color="#687FCF"/>
</linearGradient>
<radialGradient id="paint1_radial_15_1085" cx="0" cy="0" r="1" gradientUnits="userSpaceOnUse" gradientTransform="translate(15.8457 0.252038) rotate(88.5684) scale(33.3633 36.5555)">
<stop stop-color="white" stop-opacity="0.48"/>
<stop offset="1" stop-color="white" stop-opacity="0.04"/>
</radialGradient>
</defs>
</svg>
