<svg width="35" height="35" viewBox="0 0 35 35" fill="none" xmlns="http://www.w3.org/2000/svg">
<path d="M32.7861 17.2314C32.9387 8.48818 25.9746 1.27672 17.2315 1.12411C8.48829 0.971495 1.27683 7.93552 1.12421 16.6787C0.971601 25.4219 7.93563 32.6333 16.6788 32.786C25.422 32.9386 32.6334 25.9745 32.7861 17.2314Z" fill="url(#paint0_linear_15_1158)"/>
<path d="M32.7861 17.2314C32.9387 8.48818 25.9746 1.27672 17.2315 1.12411C8.48829 0.971495 1.27683 7.93552 1.12421 16.6787C0.971601 25.4219 7.93563 32.6333 16.6788 32.786C25.422 32.9386 32.6334 25.9745 32.7861 17.2314Z" stroke="url(#paint1_radial_15_1158)"/>
<mask id="mask0_15_1158" style="mask-type:luminance" maskUnits="userSpaceOnUse" x="3" y="3" width="28" height="28">
<path d="M30.2881 3.62146H3.62143V30.2881H30.2881V3.62146Z" fill="white"/>
</mask>
<g mask="url(#mask0_15_1158)">
</g>
<path d="M12.3272 9L11 9C9.89543 9 9 9.89543 9 11V25C9 26.1046 9.89543 27 11 27H23C24.1046 27 25 26.1046 25 25V11C25 9.89543 24.1046 9 23 9L21.5 9" stroke="white" stroke-width="2"/>
<path d="M13 8C13 7.44772 13.4477 7 14 7H20C20.5523 7 21 7.44772 21 8V10C21 10.5523 20.5523 11 20 11H14C13.4477 11 13 10.5523 13 10V8Z" stroke="white" stroke-width="2"/>
<path d="M17 16V21" stroke="white" stroke-width="2" stroke-linecap="round"/>
<path d="M15.739 22H18.2536" stroke="white" stroke-width="2" stroke-linecap="round"/>
<path d="M14 17V16H20V17" stroke="white" stroke-width="2" stroke-linecap="round"/>
<defs>
<linearGradient id="paint0_linear_15_1158" x1="17.2609" y1="0.276743" x2="16.6791" y2="33.605" gradientUnits="userSpaceOnUse">
<stop stop-color="#00F0FF"/>
<stop offset="1" stop-color="#68CF85"/>
</linearGradient>
<radialGradient id="paint1_radial_15_1158" cx="0" cy="0" r="1" gradientUnits="userSpaceOnUse" gradientTransform="translate(15.8457 0.252038) rotate(88.5684) scale(33.3633 36.5555)">
<stop stop-color="white" stop-opacity="0.48"/>
<stop offset="1" stop-color="white" stop-opacity="0.04"/>
</radialGradient>
</defs>
</svg>
