<svg width="47" height="47" viewBox="0 0 47 47" fill="none" xmlns="http://www.w3.org/2000/svg">
<g filter="url(#filter0_d_38_17915)">
<g filter="url(#filter1_i_38_17915)">
<path d="M35.0076 17.5037C35.0076 24.4087 29.4099 30.0064 22.5049 30.0064C15.5998 30.0064 10.0022 24.4087 10.0022 17.5037C10.0022 10.5986 15.5998 5.00098 22.5049 5.00098C29.4099 5.00098 35.0076 10.5986 35.0076 17.5037Z" fill="black"/>
</g>
<g filter="url(#filter2_i_38_17915)">
<path fill-rule="evenodd" clip-rule="evenodd" d="M31.9488 9.31006C29.7545 7.40461 26.8895 6.25125 23.7552 6.25125C16.8501 6.25125 11.2525 11.8489 11.2525 18.7539C11.2525 21.8883 12.4058 24.7532 14.3113 26.9476C11.6714 24.6552 10.0022 21.2744 10.0022 17.5037C10.0022 10.5986 15.5998 5.00098 22.5049 5.00098C26.2756 5.00098 29.6564 6.67022 31.9488 9.31006Z" fill="#00F2EA"/>
</g>
<g filter="url(#filter3_i_38_17915)">
<path fill-rule="evenodd" clip-rule="evenodd" d="M21.2546 28.7559C28.1597 28.7559 33.7573 23.1582 33.7573 16.2532C33.7573 13.1188 32.604 10.2539 30.6985 8.05957C33.3384 10.3519 35.0076 13.7327 35.0076 17.5034C35.0076 24.4085 29.41 30.0061 22.5049 30.0061C18.7342 30.0061 15.3534 28.3369 13.061 25.6971C15.2554 27.6025 18.1203 28.7559 21.2546 28.7559Z" fill="#FF004F"/>
</g>
<g filter="url(#filter4_bii_38_17915)">
<path fill-rule="evenodd" clip-rule="evenodd" d="M17.5038 35.0073C24.4088 35.0073 30.0065 29.4097 30.0065 22.5046C30.0065 15.5996 24.4088 10.002 17.5038 10.002C10.5987 10.002 5.0011 15.5996 5.0011 22.5046C5.0011 29.4097 10.5987 35.0073 17.5038 35.0073ZM12.5325 28.4921L12.5316 28.4914C11.7389 27.643 11.2524 26.5068 11.2524 25.2589C11.2524 22.6782 13.3284 20.5738 15.9033 20.5136C15.9182 20.5133 15.9331 20.5128 15.948 20.5123C15.9704 20.5115 15.9929 20.5107 16.0156 20.5107C16.2303 20.5117 16.4448 20.5273 16.6575 20.5573V23.1907C16.4545 23.1272 16.2397 23.0903 16.0156 23.0903C15.4387 23.0909 14.8857 23.3196 14.4779 23.7262C14.07 24.1328 13.8406 24.684 13.8401 25.2589C13.8401 25.7128 13.984 26.1552 14.2513 26.5228L14.2523 26.5234C14.4532 26.8027 14.7179 27.0303 15.0246 27.1874C15.3312 27.3446 15.671 27.4267 16.0158 27.4271C17.1877 27.4271 18.1438 26.4979 18.1873 25.3403L18.1913 15.003H20.7793C20.7789 15.8682 21.0935 16.7041 21.6648 17.3556C22.1757 17.9421 22.8639 18.3477 23.6257 18.5114V18.5111C23.8693 18.5631 24.1212 18.591 24.3803 18.591V21.1709C23.0882 21.1724 21.8285 20.7687 20.7795 20.0169V25.2589C20.7795 27.8764 18.6425 30.0063 16.0158 30.0063C15.3617 30.0064 14.7146 29.8719 14.115 29.6112C13.5158 29.3507 12.9771 28.9696 12.5325 28.4921Z" fill="white" fill-opacity="0.4"/>
</g>
</g>
<defs>
<filter id="filter0_d_38_17915" x="1.0011" y="1.00098" width="46.0065" height="46.0063" filterUnits="userSpaceOnUse" color-interpolation-filters="sRGB">
<feFlood flood-opacity="0" result="BackgroundImageFix"/>
<feColorMatrix in="SourceAlpha" type="matrix" values="0 0 0 0 0 0 0 0 0 0 0 0 0 0 0 0 0 0 127 0" result="hardAlpha"/>
<feOffset dx="4" dy="4"/>
<feGaussianBlur stdDeviation="4"/>
<feColorMatrix type="matrix" values="0 0 0 0 1 0 0 0 0 0.341176 0 0 0 0 0.54902 0 0 0 0.4 0"/>
<feBlend mode="normal" in2="BackgroundImageFix" result="effect1_dropShadow_38_17915"/>
<feBlend mode="normal" in="SourceGraphic" in2="effect1_dropShadow_38_17915" result="shape"/>
</filter>
<filter id="filter1_i_38_17915" x="10.0022" y="5.00098" width="25.0054" height="25.0054" filterUnits="userSpaceOnUse" color-interpolation-filters="sRGB">
<feFlood flood-opacity="0" result="BackgroundImageFix"/>
<feBlend mode="normal" in="SourceGraphic" in2="BackgroundImageFix" result="shape"/>
<feColorMatrix in="SourceAlpha" type="matrix" values="0 0 0 0 0 0 0 0 0 0 0 0 0 0 0 0 0 0 127 0" result="hardAlpha"/>
<feOffset/>
<feGaussianBlur stdDeviation="4"/>
<feComposite in2="hardAlpha" operator="arithmetic" k2="-1" k3="1"/>
<feColorMatrix type="matrix" values="0 0 0 0 1 0 0 0 0 1 0 0 0 0 1 0 0 0 0.8 0"/>
<feBlend mode="normal" in2="shape" result="effect1_innerShadow_38_17915"/>
</filter>
<filter id="filter2_i_38_17915" x="10.0022" y="5.00098" width="21.9465" height="21.9468" filterUnits="userSpaceOnUse" color-interpolation-filters="sRGB">
<feFlood flood-opacity="0" result="BackgroundImageFix"/>
<feBlend mode="normal" in="SourceGraphic" in2="BackgroundImageFix" result="shape"/>
<feColorMatrix in="SourceAlpha" type="matrix" values="0 0 0 0 0 0 0 0 0 0 0 0 0 0 0 0 0 0 127 0" result="hardAlpha"/>
<feOffset/>
<feGaussianBlur stdDeviation="4"/>
<feComposite in2="hardAlpha" operator="arithmetic" k2="-1" k3="1"/>
<feColorMatrix type="matrix" values="0 0 0 0 1 0 0 0 0 1 0 0 0 0 1 0 0 0 0.8 0"/>
<feBlend mode="normal" in2="shape" result="effect1_innerShadow_38_17915"/>
</filter>
<filter id="filter3_i_38_17915" x="13.061" y="8.05957" width="21.9465" height="21.9468" filterUnits="userSpaceOnUse" color-interpolation-filters="sRGB">
<feFlood flood-opacity="0" result="BackgroundImageFix"/>
<feBlend mode="normal" in="SourceGraphic" in2="BackgroundImageFix" result="shape"/>
<feColorMatrix in="SourceAlpha" type="matrix" values="0 0 0 0 0 0 0 0 0 0 0 0 0 0 0 0 0 0 127 0" result="hardAlpha"/>
<feOffset/>
<feGaussianBlur stdDeviation="4"/>
<feComposite in2="hardAlpha" operator="arithmetic" k2="-1" k3="1"/>
<feColorMatrix type="matrix" values="0 0 0 0 1 0 0 0 0 1 0 0 0 0 1 0 0 0 0.8 0"/>
<feBlend mode="normal" in2="shape" result="effect1_innerShadow_38_17915"/>
</filter>
<filter id="filter4_bii_38_17915" x="1.0011" y="6.00195" width="33.0054" height="33.0054" filterUnits="userSpaceOnUse" color-interpolation-filters="sRGB">
<feFlood flood-opacity="0" result="BackgroundImageFix"/>
<feGaussianBlur in="BackgroundImageFix" stdDeviation="2"/>
<feComposite in2="SourceAlpha" operator="in" result="effect1_backgroundBlur_38_17915"/>
<feBlend mode="normal" in="SourceGraphic" in2="effect1_backgroundBlur_38_17915" result="shape"/>
<feColorMatrix in="SourceAlpha" type="matrix" values="0 0 0 0 0 0 0 0 0 0 0 0 0 0 0 0 0 0 127 0" result="hardAlpha"/>
<feOffset/>
<feGaussianBlur stdDeviation="2"/>
<feComposite in2="hardAlpha" operator="arithmetic" k2="-1" k3="1"/>
<feColorMatrix type="matrix" values="0 0 0 0 1 0 0 0 0 1 0 0 0 0 1 0 0 0 1 0"/>
<feBlend mode="normal" in2="shape" result="effect2_innerShadow_38_17915"/>
<feColorMatrix in="SourceAlpha" type="matrix" values="0 0 0 0 0 0 0 0 0 0 0 0 0 0 0 0 0 0 127 0" result="hardAlpha"/>
<feOffset dy="4"/>
<feGaussianBlur stdDeviation="4"/>
<feComposite in2="hardAlpha" operator="arithmetic" k2="-1" k3="1"/>
<feColorMatrix type="matrix" values="0 0 0 0 1 0 0 0 0 1 0 0 0 0 1 0 0 0 1 0"/>
<feBlend mode="normal" in2="effect2_innerShadow_38_17915" result="effect3_innerShadow_38_17915"/>
</filter>
</defs>
</svg>
