<svg width="77" height="60" viewBox="0 0 77 60" fill="none" xmlns="http://www.w3.org/2000/svg">
<mask id="path-1-outside-1_8_3879" maskUnits="userSpaceOnUse" x="-15.0229" y="-14.5448" width="107.021" height="88.6551" fill="black">
<rect fill="white" x="-15.0229" y="-14.5448" width="107.021" height="88.6551"/>
<path d="M0.355415 28.0244L6.92624 25.2054L24.1324 47.1764L28.0151 45.5106L23.9507 17.9017L30.5215 15.0827L35.2285 49.1353L21.7881 54.9014L0.355415 28.0244ZM48.4515 39.0064C44.4793 37.2213 41.4852 33.9791 39.4692 29.28C37.4531 24.5808 37.1755 20.1968 38.6363 16.128C40.1199 12.0022 42.9125 9.05946 47.0143 7.29973C49.6028 6.18922 52.2969 5.92932 55.0966 6.52002C56.2859 6.76424 57.4183 7.15074 58.4939 7.6795L58.7926 7.55136L57.1268 3.6686L63.399 0.977743L76.4688 31.4425L70.1967 34.1334L68.4028 29.9519L68.1041 30.0801C67.8655 31.1726 67.3909 32.3193 66.6801 33.5202C65.213 36.0357 63.1852 37.8487 60.5967 38.9592C56.4949 40.7189 52.4465 40.7347 48.4515 39.0064ZM45.2004 17.9093C44.3592 20.3449 44.639 23.1955 46.04 26.461C47.4409 29.7265 49.3137 31.8937 51.6584 32.9625C54.0031 34.0313 56.5692 33.9678 59.3568 32.7718C61.9852 31.6442 63.7 29.8712 64.5014 27.4527C65.3255 24.9772 65.0456 22.1267 63.6618 18.901C62.2779 15.6753 60.4136 13.528 58.069 12.4592C55.747 11.3335 53.2719 11.3344 50.6436 12.462C47.856 13.6579 46.0416 15.4737 45.2004 17.9093Z"/>
</mask>
<path d="M0.355415 28.0244L6.92624 25.2054L24.1324 47.1764L28.0151 45.5106L23.9507 17.9017L30.5215 15.0827L35.2285 49.1353L21.7881 54.9014L0.355415 28.0244ZM48.4515 39.0064C44.4793 37.2213 41.4852 33.9791 39.4692 29.28C37.4531 24.5808 37.1755 20.1968 38.6363 16.128C40.1199 12.0022 42.9125 9.05946 47.0143 7.29973C49.6028 6.18922 52.2969 5.92932 55.0966 6.52002C56.2859 6.76424 57.4183 7.15074 58.4939 7.6795L58.7926 7.55136L57.1268 3.6686L63.399 0.977743L76.4688 31.4425L70.1967 34.1334L68.4028 29.9519L68.1041 30.0801C67.8655 31.1726 67.3909 32.3193 66.6801 33.5202C65.213 36.0357 63.1852 37.8487 60.5967 38.9592C56.4949 40.7189 52.4465 40.7347 48.4515 39.0064ZM45.2004 17.9093C44.3592 20.3449 44.639 23.1955 46.04 26.461C47.4409 29.7265 49.3137 31.8937 51.6584 32.9625C54.0031 34.0313 56.5692 33.9678 59.3568 32.7718C61.9852 31.6442 63.7 29.8712 64.5014 27.4527C65.3255 24.9772 65.0456 22.1267 63.6618 18.901C62.2779 15.6753 60.4136 13.528 58.069 12.4592C55.747 11.3335 53.2719 11.3344 50.6436 12.462C47.856 13.6579 46.0416 15.4737 45.2004 17.9093Z" fill="white"/>
<path d="M0.355415 28.0244L-3.98149 17.9155C-7.13512 19.2684 -9.47668 22.0156 -10.313 25.3438C-11.1492 28.6719 -10.3844 32.1996 -8.24488 34.8826L0.355415 28.0244ZM6.92624 25.2054L15.5866 18.4232C12.5102 14.4948 7.17485 13.1292 2.58934 15.0965L6.92624 25.2054ZM24.1324 47.1764L15.472 53.9586C18.5484 57.887 23.8837 59.2526 28.4693 57.2854L24.1324 47.1764ZM28.0151 45.5106L32.352 55.6196C36.9375 53.6523 39.6245 48.845 38.8978 43.9085L28.0151 45.5106ZM23.9507 17.9017L19.6138 7.79272C15.0282 9.75998 12.3412 14.5673 13.068 19.5038L23.9507 17.9017ZM30.5215 15.0827L41.4179 13.5765C40.948 10.1772 38.9187 7.19199 35.9306 5.50453C32.9426 3.81708 29.3382 3.62077 26.1846 4.97373L30.5215 15.0827ZM35.2285 49.1353L39.5654 59.2442C44.1178 57.2912 46.8032 52.5361 46.1249 47.6291L35.2285 49.1353ZM21.7881 54.9014L13.1879 61.7596C16.2763 65.6326 21.5726 66.9634 26.1251 65.0103L21.7881 54.9014ZM4.69232 38.1334L11.2632 35.3144L2.58934 15.0965L-3.98149 17.9155L4.69232 38.1334ZM-1.73412 31.9876L15.472 53.9586L32.7927 40.3942L15.5866 18.4232L-1.73412 31.9876ZM28.4693 57.2854L32.352 55.6196L23.6782 35.4017L19.7954 37.0674L28.4693 57.2854ZM38.8978 43.9085L34.8334 16.2996L13.068 19.5038L17.1324 47.1127L38.8978 43.9085ZM28.2876 28.0107L34.8584 25.1917L26.1846 4.97373L19.6138 7.79272L28.2876 28.0107ZM19.6251 16.5889L24.3321 50.6414L46.1249 47.6291L41.4179 13.5765L19.6251 16.5889ZM30.8916 39.0263L17.4512 44.7924L26.1251 65.0103L39.5654 59.2442L30.8916 39.0263ZM30.3884 48.0432L8.9557 21.1662L-8.24488 34.8826L13.1879 61.7596L30.3884 48.0432ZM48.4515 39.0064L43.9425 49.0398C43.9895 49.0609 44.0367 49.0817 44.0841 49.1022L48.4515 39.0064ZM38.6363 16.128L28.2852 12.406L28.2833 12.4111L38.6363 16.128ZM55.0966 6.52002L52.8257 17.2831C52.8451 17.2872 52.8645 17.2912 52.8839 17.2952L55.0966 6.52002ZM58.4939 7.6795L53.641 17.5511C56.5228 18.9678 59.8798 19.0545 62.8308 17.7885L58.4939 7.6795ZM58.7926 7.55136L63.1295 17.6603C68.7125 15.2651 71.2968 8.79748 68.9016 3.21445L58.7926 7.55136ZM57.1268 3.6686L52.7899 -6.44037C47.2069 -4.04517 44.6226 2.42247 47.0179 8.0055L57.1268 3.6686ZM63.399 0.977744L73.5079 -3.35916C71.1127 -8.94219 64.6451 -11.5264 59.0621 -9.13122L63.399 0.977744ZM76.4688 31.4425L80.8057 41.5515C86.3888 39.1563 88.973 32.6886 86.5778 27.1056L76.4688 31.4425ZM70.1967 34.1334L60.0877 38.4703C62.4829 44.0533 68.9506 46.6375 74.5336 44.2423L70.1967 34.1334ZM68.4028 29.9519L78.5118 25.615C76.1165 20.032 69.6489 17.4477 64.0659 19.8429L68.4028 29.9519ZM68.1041 30.0801L63.7672 19.9711C60.5025 21.3717 58.1152 24.2627 57.3573 27.7334L68.1041 30.0801ZM66.6801 33.5202L57.214 27.9171C57.2019 27.9375 57.1899 27.958 57.178 27.9785L66.6801 33.5202ZM51.6584 32.9625L56.2211 22.9534L56.2211 22.9534L51.6584 32.9625ZM64.5014 27.4527L54.0646 23.9781C54.0629 23.983 54.0613 23.9879 54.0597 23.9928L64.5014 27.4527ZM58.069 12.4592L53.2701 22.3572C53.3484 22.3952 53.4271 22.4322 53.5063 22.4683L58.069 12.4592ZM52.9606 28.9731C51.9328 28.5112 50.7086 27.5781 49.5781 24.9431L29.3602 33.6169C32.2617 40.3801 37.0257 45.9314 43.9425 49.0398L52.9606 28.9731ZM49.5781 24.9431C48.4459 22.3039 48.6369 20.8267 48.9893 19.8449L28.2833 12.4111C25.7142 19.567 26.4604 26.8578 29.3602 33.6169L49.5781 24.9431ZM48.9875 19.85C49.4178 18.6533 49.9959 17.9902 51.3512 17.4087L42.6774 -2.80924C35.8292 0.128757 30.8219 5.35117 28.2852 12.406L48.9875 19.85ZM51.3512 17.4087C51.822 17.2067 52.2058 17.1523 52.8257 17.2831L57.3675 -4.24302C52.388 -5.29363 47.3836 -4.82827 42.6774 -2.80924L51.3512 17.4087ZM52.8839 17.2952C53.1703 17.354 53.4145 17.4398 53.641 17.5511L63.3468 -2.19215C61.4222 -3.13831 59.4014 -3.82551 57.3093 -4.25514L52.8839 17.2952ZM62.8308 17.7885L63.1295 17.6603L54.4557 -2.55761L54.157 -2.42947L62.8308 17.7885ZM68.9016 3.21445L67.2358 -0.66831L47.0179 8.0055L48.6836 11.8883L68.9016 3.21445ZM61.4637 13.7776L67.7359 11.0867L59.0621 -9.13122L52.7899 -6.44037L61.4637 13.7776ZM53.29 5.31465L66.3599 35.7794L86.5778 27.1056L73.5079 -3.35916L53.29 5.31465ZM72.1319 21.3335L65.8598 24.0244L74.5336 44.2423L80.8057 41.5515L72.1319 21.3335ZM80.3057 29.7964L78.5118 25.615L58.2938 34.2888L60.0877 38.4703L80.3057 29.7964ZM64.0659 19.8429L63.7672 19.9711L72.441 40.189L72.7397 40.0609L64.0659 19.8429ZM57.3573 27.7334C57.3911 27.5786 57.4206 27.516 57.4056 27.5523C57.3901 27.5895 57.3362 27.7106 57.214 27.9171L76.1461 39.1232C77.313 37.1517 78.3087 34.9096 78.8509 32.4267L57.3573 27.7334ZM57.178 27.9785C56.8556 28.5313 56.6043 28.7024 56.2598 28.8502L64.9336 49.0682C69.7662 46.9949 73.5704 43.5401 76.1822 39.0619L57.178 27.9785ZM56.2598 28.8502C54.8581 29.4516 53.9591 29.4038 52.819 28.9106L44.0841 49.1022C50.934 52.0655 58.1317 51.9863 64.9336 49.0682L56.2598 28.8502ZM34.803 14.3183C32.778 20.1814 33.8626 25.9766 35.931 30.7979L56.149 22.1241C55.7912 21.2902 55.7335 20.868 55.7267 20.7991C55.7242 20.7732 55.7327 20.838 55.7182 20.9754C55.7032 21.1162 55.6676 21.298 55.5977 21.5003L34.803 14.3183ZM35.931 30.7979C37.9994 35.6192 41.4516 40.3987 47.0957 42.9716L56.2211 22.9534C56.4158 23.0422 56.5722 23.1417 56.6845 23.2279C56.7941 23.312 56.8352 23.3628 56.8181 23.3431C56.7729 23.2908 56.5067 22.958 56.149 22.1241L35.931 30.7979ZM47.0957 42.9716C52.764 45.5555 58.6098 45.0619 63.6937 42.8808L55.0199 22.6629C54.6829 22.8075 54.7238 22.7284 55.0692 22.7198C55.2392 22.7156 55.4436 22.7301 55.6645 22.7753C55.8851 22.8204 56.0744 22.8865 56.2211 22.9534L47.0957 42.9716ZM63.6937 42.8808C68.8198 40.6817 73.0242 36.7036 74.9431 30.9125L54.0597 23.9928C54.1611 23.6868 54.3777 23.2899 54.7073 22.949C55.0135 22.6325 55.2042 22.5838 55.0199 22.6629L63.6937 42.8808ZM74.9382 30.9272C76.87 25.1248 75.8455 19.4003 73.7707 14.5641L53.5528 23.2379C53.8959 24.0377 53.9542 24.4517 53.9622 24.533C53.9655 24.5668 53.958 24.5197 53.9695 24.4075C53.9812 24.2925 54.0095 24.1434 54.0646 23.9781L74.9382 30.9272ZM73.7707 14.5641C71.7029 9.74417 68.248 5.01038 62.6317 2.45013L53.5063 22.4683C53.3211 22.3839 53.1698 22.2884 53.0587 22.2035C52.9501 22.1205 52.9069 22.0685 52.9194 22.0828C52.9546 22.1234 53.2086 22.4357 53.5528 23.2379L73.7707 14.5641ZM62.8678 2.56119C57.3437 -0.117071 51.5103 0.120615 46.3067 2.35303L54.9805 22.571C55.1367 22.504 54.9411 22.6154 54.4753 22.6156C53.9779 22.6158 53.5407 22.4884 53.2701 22.3572L62.8678 2.56119ZM46.3067 2.35303C41.2227 4.53413 36.8366 8.43014 34.803 14.3183L55.5977 21.5003C55.5451 21.6527 55.4625 21.8354 55.3432 22.0264C55.2238 22.2176 55.0934 22.3757 54.9732 22.496C54.7289 22.7404 54.6434 22.7156 54.9805 22.571L46.3067 2.35303Z" fill="url(#paint0_linear_8_3879)" mask="url(#path-1-outside-1_8_3879)"/>
<defs>
<linearGradient id="paint0_linear_8_3879" x1="63.5" y1="-4" x2="18" y2="58.5" gradientUnits="userSpaceOnUse">
<stop stop-color="#001AFF"/>
<stop offset="1" stop-color="#280099"/>
</linearGradient>
</defs>
</svg>
