<svg width="47" height="46" viewBox="0 0 47 46" fill="none" xmlns="http://www.w3.org/2000/svg">
<g filter="url(#filter0_b_36_17635)">
<path d="M0.681746 22.705C0.681746 35.2446 10.8471 45.4099 23.3867 45.4099C35.9263 45.4099 46.0917 35.2446 46.0917 22.705C46.0917 10.1654 35.9263 -4.44342e-07 23.3867 -9.92465e-07C10.8471 -1.54059e-06 0.681747 10.1654 0.681746 22.705Z" fill="url(#paint0_linear_36_17635)"/>
<path d="M23.3867 44.4099C11.3994 44.4099 1.68175 34.6923 1.68175 22.705C1.68175 10.7176 11.3994 0.999998 23.3867 0.999999C35.374 1 45.0917 10.7176 45.0917 22.705C45.0917 34.6923 35.374 44.4099 23.3867 44.4099Z" stroke="url(#paint1_linear_36_17635)" stroke-width="2"/>
</g>
<defs>
<filter id="filter0_b_36_17635" x="-17.3182" y="-18" width="81.4099" height="81.4099" filterUnits="userSpaceOnUse" color-interpolation-filters="sRGB">
<feFlood flood-opacity="0" result="BackgroundImageFix"/>
<feGaussianBlur in="BackgroundImageFix" stdDeviation="9"/>
<feComposite in2="SourceAlpha" operator="in" result="effect1_backgroundBlur_36_17635"/>
<feBlend mode="normal" in="SourceGraphic" in2="effect1_backgroundBlur_36_17635" result="shape"/>
</filter>
<linearGradient id="paint0_linear_36_17635" x1="3.2454" y1="2.56365" x2="43.528" y2="42.8463" gradientUnits="userSpaceOnUse">
<stop stop-color="white" stop-opacity="0.2"/>
<stop offset="1" stop-color="white" stop-opacity="0.49"/>
</linearGradient>
<linearGradient id="paint1_linear_36_17635" x1="42.5203" y1="3.20543" x2="1.93397" y2="41.1638" gradientUnits="userSpaceOnUse">
<stop stop-color="white"/>
<stop offset="1" stop-color="white" stop-opacity="0"/>
</linearGradient>
</defs>
</svg>
